<svg width="15" height="14" viewBox="0 0 15 14" fill="none" xmlns="http://www.w3.org/2000/svg">
<path fill-rule="evenodd" clip-rule="evenodd" d="M0.958374 6.41667C0.958374 3.28704 3.49541 0.75 6.62504 0.75C9.21236 0.75 11.3946 2.48387 12.0732 4.85324C11.4401 4.54681 10.7297 4.375 9.97921 4.375C9.26236 4.375 8.58212 4.53173 7.97089 4.8128C7.85516 4.70976 7.70308 4.64723 7.5365 4.64723C7.17407 4.64723 6.88025 4.94324 6.88025 5.30835C6.88025 5.36971 6.88855 5.42911 6.90407 5.48549C5.84253 6.36825 5.16671 7.69895 5.16671 9.1875C5.16671 10.2644 5.52042 11.2587 6.11801 12.0605C5.73813 12.0246 5.35529 11.9523 4.97047 11.8459L3.23107 12.593C2.89511 12.7373 2.50717 12.6867 2.21943 12.4611C1.93168 12.2355 1.79 11.8709 1.84995 11.5102L2.12425 9.85999C1.39348 8.9059 0.958374 7.71122 0.958374 6.41667ZM12.2904 6.36766C12.2722 6.89576 11.8431 7.32282 11.3086 7.33228C10.7898 7.34146 10.3562 6.95378 10.2977 6.44884L8.08337 6.70833L7.63443 10.0197C8.05004 10.076 8.40148 10.3919 8.48294 10.8267C8.58464 11.3696 8.22703 11.8921 7.68418 11.9938L7.65757 11.9987C6.84876 11.33 6.33337 10.3189 6.33337 9.1875C6.33337 7.17396 7.96567 5.54167 9.97921 5.54167C10.8564 5.54167 11.6613 5.85148 12.2904 6.36766ZM4.9115 5.96947C5.27392 5.96947 5.56775 5.67349 5.56775 5.30835C5.56775 4.94324 5.27392 4.64723 4.9115 4.64723C4.54907 4.64723 4.25525 4.94324 4.25525 5.30835C4.25525 5.67349 4.54907 5.96947 4.9115 5.96947Z" fill="#596780"/>
<mask id="path-2-inside-1_1_46522" fill="white">
<path fill-rule="evenodd" clip-rule="evenodd" d="M12.7507 10.4922L13.0417 12.2501L11.8055 11.6462"/>
</mask>
<path fill-rule="evenodd" clip-rule="evenodd" d="M12.7507 10.4922L13.0417 12.2501L11.8055 11.6462" fill="#596780"/>
<path d="M13.0417 12.2501L12.8222 12.6994L13.6933 13.125L13.535 12.1685L13.0417 12.2501ZM12.2574 10.5738L12.5484 12.3318L13.535 12.1685L13.244 10.4105L12.2574 10.5738ZM13.2612 11.8009L12.025 11.1969L11.586 12.0954L12.8222 12.6994L13.2612 11.8009Z" fill="#596780" mask="url(#path-2-inside-1_1_46522)"/>
<path d="M12.7507 10.4922L13.0417 12.2501L11.8055 11.6462" stroke="#596780" stroke-width="2" stroke-linecap="round" stroke-linejoin="round"/>
<path fill-rule="evenodd" clip-rule="evenodd" d="M12.1753 11.1947C12.2114 11.2243 12.2444 11.2588 12.2736 11.2979C12.4659 11.5564 12.4123 11.9218 12.1538 12.1141C11.5467 12.5659 10.7933 12.8334 9.97921 12.8334C7.96567 12.8334 6.33337 11.2011 6.33337 9.18758C6.33337 7.17404 7.96567 5.54175 9.97921 5.54175C11.9927 5.54175 13.625 7.17404 13.625 9.18758C13.625 9.74195 13.5009 10.269 13.2783 10.741C13.1409 11.0324 12.7933 11.1572 12.5019 11.0198C12.4577 10.9989 12.4173 10.9732 12.381 10.9435L12.1753 11.1947ZM10.9089 8.98339C10.6371 8.98339 10.4167 8.7614 10.4167 8.48755C10.4167 8.21371 10.6371 7.99172 10.9089 7.99172C11.1807 7.99172 11.4011 8.21371 11.4011 8.48755C11.4011 8.7614 11.1807 8.98339 10.9089 8.98339ZM8.44796 8.48755C8.44796 8.7614 8.66831 8.98339 8.94014 8.98339C9.21198 8.98339 9.43233 8.7614 9.43233 8.48755C9.43233 8.21371 9.21198 7.99172 8.94014 7.99172C8.66831 7.99172 8.44796 8.21371 8.44796 8.48755Z" fill="#596780"/>
</svg>
